<svg version="1" xmlns="http://www.w3.org/2000/svg" width="533.333" height="533.333" viewBox="0 0 400.000000 400.000000"><path d="M123.1 1.5c-2.6 1.2-4.2 1.3-7.2.5-4.1-1.1-11.2.1-12.4 2-.3.6-2.5 1-4.9 1-2.3 0-5.1.7-6.2 1.5-1 .8-3.5 1.5-5.4 1.5-4.9 0-11.1 1.9-13.5 4-1.1 1-4.1 2.1-6.7 2.4-8.3 1.2-12.5 7.1-9.9 13.9.8 2.2.8 3.5-.4 5.7-1.9 3.7-1.9 5.8.1 9.5.9 1.6 1.6 4.8 1.5 7.1-.1 2.8.6 5.1 2.4 7.8 1.4 2 2.5 4.8 2.5 6.2 0 3.6 2.5 9.1 4.9 10.6 1.4.8 2.1 2.3 2.1 4.2 0 2.2 1.3 4.2 5.2 8 2.9 2.8 6 6.8 7 8.9 1.3 2.9 2.9 4.3 6.6 6 3.2 1.4 5.4 3.2 6.2 5 1.2 2.7 5.2 5.4 9.8 6.6 2.1.6 1.7 1.1-4.6 5.4C82.4 131.4 74.3 145 72 166.7c-1.4 12.2-2.2 14.2-6.6 17.2-8.9 6.2-19.5 22.3-22.3 34.2-4.3 18.4-.6 35.9 10.8 50.9 2.2 3 4.1 6.3 4.1 7.2 0 1 1.8 7.1 3.9 13.6 2.2 6.4 4.7 14.8 5.6 18.7 4.2 17.3 17.8 34.7 33.5 42.9 4.1 2.1 11.5 6.6 16.4 9.8 8.6 5.7 20.2 11.9 27.6 14.8 1.9.8 6 3.5 9 6.1 13.8 11.9 27.3 17.1 44.5 17.2 6.2.1 13.4-.4 16.5-1.2 10.9-2.7 22.6-9.1 31.5-17.2 2.2-2 5.1-4 6.5-4.4 5.4-1.6 20.4-9.6 28.8-15.3 4.9-3.3 10.5-6.7 12.5-7.5 11.5-4.8 26.1-19 32-30.9 2-4 4.8-11.6 6.1-16.8 1.4-5.2 3.9-13.5 5.6-18.3 1.6-4.9 3-9.6 3-10.6 0-.9 2.4-5.2 5.4-9.4 3-4.3 6.7-11.3 8.3-15.5 2.5-6.9 2.8-8.9 2.7-19.7 0-10.5-.4-12.9-2.7-19.1-4.4-11.7-7.5-16.4-17.2-26l-9.2-9-.6-8.5c-1.8-23-10.9-39-29-50.9l-6.6-4.4 3.4-1.2c5.2-1.8 8.4-4.2 9.1-6.8.3-1.5 1.6-2.7 3.2-3.1 4.1-1 8.3-4.5 9.8-8.1.8-1.8 2.8-4.4 4.5-5.6 3.6-2.7 6.9-7.7 6.9-10.5 0-1.1.9-2.8 2.1-3.9 2.8-2.6 4.9-6.7 4.9-9.9 0-1.5 1.2-4.6 2.6-7 1.6-2.9 2.5-5.6 2.3-7.7-.1-1.8.5-4.7 1.4-6.5 2.1-4 2.2-8.2.2-11.1-1.2-1.6-1.3-2.7-.5-4.1 3.4-6.4-1.2-13.4-9.6-14.6-2.7-.4-5.8-1.5-6.9-2.5-2.7-2.3-7.9-4-12.5-4-2 0-4.5-.7-5.6-1.5-1-.8-3.7-1.5-5.8-1.5-2.2 0-6-1-8.4-2.1-4-2-5-2.1-9.4-1-2.9.6-5.5.8-6.2.3-2.3-1.9-6-2-10.5-.5-2.5.9-6.7 1.5-9.3 1.4-2.7-.1-6 .5-7.7 1.4-1.7.8-4.8 1.5-7.1 1.5-4.5 0-8.5 1.7-11.4 4.9-1.1 1.2-3 2.1-4.3 2.1-8 0-20.3 14.6-27 31.9-.9 2.3-1 2.1-2.7-2.5-5.2-13.9-18.3-29.4-25-29.4-2.1 0-4-.8-5.2-2.1C164.5 7.7 160.5 6 156 6c-2.3 0-5.5-.7-7.2-1.6-2.1-1.1-4.6-1.5-7.4-1.1-2.5.2-5.4-.1-6.8-.8-4.2-2.2-7.9-2.5-11.5-1zm.8 14.1c6 2.7 8.6 2 6.3-1.6-2.3-3.7 2.4-1.8 9.1 3.7 3.8 3 4.5 2.9 5.5-.9l.8-3.2 5.2 4.8c5.4 5 7.2 5.2 7.2.8 0-2.5.4-2.3 6.4 3.7l6.4 6.3 1.4-2.7 1.5-2.8 4.4 5.7c15.3 19.6 16.9 38.4 3.9 47l-4.1 2.7-8.8-6.4c-10.1-7.5-25-16.3-37.1-21.9-10-4.7-31.1-13-31.6-12.5-.2.2 3.8 2.5 8.8 5.2C131.4 55 152.5 69 164.3 80l7 6.6-2 4.4c-5.1 11.3-16.8 17.8-36.3 20.1-9.9 1.1-13.2.7-9.7-1.2 3.8-2.2 1.8-3.7-5.5-4.4-4-.4-8.4-1.1-9.6-1.6l-2.4-.9 2.2-1.8 2.2-1.8-4.3-1.4c-2.4-.8-6.4-2.3-8.9-3.3-4.2-1.8-4.3-2-2.1-2.6 4.1-1.1 3.4-2.5-3.3-5.9-3.5-1.8-7.2-4.2-8.1-5.3-1.8-1.8-1.7-1.9 1.3-1.9 3.9 0 4.1-1.2.5-3.6-4.2-2.7-10.3-7.8-10.3-8.7 0-.4 1.4-.7 3-.7 1.7 0 3-.3 3-.7 0-.3-2.5-2.9-5.5-5.8-5.3-4.9-7.1-8.1-4-6.9.8.4 2.7.3 4.1 0 2.7-.7 2.7-.7-3-6.1-3.1-2.9-5.6-5.8-5.6-6.4 0-.6 1.6-1.1 3.6-1.1 3.4 0 3.6-.1 2.9-2.8-.3-1.5-1.7-4.4-3.1-6.4-1.3-2.1-2.4-4-2.4-4.3 0-.3 3.6-.5 7.9-.5 8.2 0 10.2-.8 7.6-3-3-2.5-1.5-3.2 5.8-2.7 3.9.3 8.4.9 10 1.2 2.2.6 2.7.4 2.7-1.2 0-1-.5-2.4-1.2-3.1-.9-.9-.9-1.2.3-1.2 1.5 0 10.4 2.4 13.2 3.5 1.2.5 1.7.2 1.7-1.1 0-.9-.8-2.6-1.7-3.7-1.8-2-1.7-2 1.2-1.3 1.7.4 5.4 1.8 8.4 3.2zM269.8 14c-2.3 3.6.3 4.3 6.3 1.6 3-1.4 6.8-2.8 8.4-3.2 2.9-.7 3-.7 1.3 1.3-1 1.1-1.8 2.8-1.8 3.7 0 1.3.5 1.6 1.8 1.1 1.8-.8 12.2-3.5 13.5-3.5.4 0 0 1.1-.9 2.5-1.4 2.2-1.4 2.5-.1 3.1.8.3 3.2.1 5.4-.5 4.6-1.3 14.3-1.4 14.3-.2 0 .5-.7 1.4-1.5 2.1-2.9 2.4-1.4 3 7 3 7.6 0 10.2.8 7.6 2.4-1 .7-5.1 9.1-5.1 10.6 0 .5 1.6 1 3.5 1s3.5.5 3.5 1.1c0 .5-2.2 3.2-5 5.8-2.7 2.6-5 5.3-5 5.9 0 .6 1.7 1.2 3.8 1.4l3.7.3-5.7 5.9c-3.2 3.2-5.8 6.1-5.8 6.3 0 .1 1.4.3 3 .3 1.7 0 3 .4 3 .9 0 .6-2.9 3.1-6.5 5.8-3.6 2.6-6.5 5.1-6.5 5.5 0 .5 1.4.8 3 .8 1.7 0 3 .4 3 .8 0 .8-8.7 6.3-13.3 8.3-3.4 1.5-3 3.2.9 3.9 2.8.5 2.8.6-2.1 2.7-2.7 1.1-7 2.7-9.4 3.4l-4.3 1.3 2.2 1.8 2.2 1.8-2.4.9c-1.2.5-5.6 1.2-9.5 1.6-7.5.7-8.5 1.5-5.6 4.7 1.5 1.7 1.5 1.8-.3 1.8-6.4 0-19.9-2.4-26.2-4.6-8.8-3.2-17.1-10.2-19.7-16.7l-1.7-4.2 6.9-6.5c11.6-10.8 33.6-25.5 54.1-36 4.6-2.3 8.1-4.4 7.8-4.7-.7-.7-20.4 7.1-31.9 12.7-12.6 6.1-24.5 13.2-35.4 21.1l-8.4 6.1-3.5-2.4c-1.9-1.2-4.7-4.1-6.2-6.2-2.4-3.4-2.7-4.9-2.7-11.5 0-6.7.4-8.5 3.6-15.1 2-4.1 5.8-10.4 8.4-14 4.7-6.3 4.8-6.4 5.9-4 .5 1.4 1.1 2.7 1.3 2.9.2.3 3.3-2.4 6.8-5.9 5-4.9 6.5-6 6.5-4.5.1 5 1.7 5 7.2 0 4.7-4.2 5.3-4.5 5.6-2.7.6 3.8 2.7 4.5 5.8 1.9 7.1-5.7 11.6-7.5 9.2-3.7z"/></svg>